<?xml version="1.0" encoding="UTF-8"?>
<!DOCTYPE svg PUBLIC "-//W3C//DTD SVG 1.1//EN" "http://www.w3.org/Graphics/SVG/1.1/DTD/svg11.dtd">
<!-- Creator: CorelDRAW Home & Student X8 -->
<svg xmlns="http://www.w3.org/2000/svg" xml:space="preserve" width="420mm" height="525mm" version="1.1" style="shape-rendering:geometricPrecision; text-rendering:geometricPrecision; image-rendering:optimizeQuality; fill-rule:evenodd; clip-rule:evenodd"
viewBox="0 0 420000 525000"
 xmlns:xlink="http://www.w3.org/1999/xlink">
 <defs>
  <style type="text/css">
   <![CDATA[
    .fil0 {fill:#FBF2D0}
    .fil1 {fill:#F0E3B9}
   ]]>
  </style>
 </defs>
 <g id="Ebene_x0020_1">
  <metadata id="CorelCorpID_0Corel-Layer"/>
  <g id="Hintergrund_x0020_mit_x0020_Fadenkreuz">
   <path id="Hintergrund" class="fil0" d="M409165 197529c1460,689 2655,1450 2493,2703 -2118,582 -1364,390 -1671,2758 -670,245 -1013,633 -1254,1238l2283 2432 0 1457c1432,4182 -194,6414 -194,10502 -700,1027 -841,1447 -856,2171l214 114c0,1754 478,2033 836,3560 -469,333 -804,859 -1068,1510l874 0 836 919 0 4597c-1077,1185 -1328,1248 -1671,2758 -409,150 -790,577 -1125,1159 257,695 483,1205 483,2410 947,336 1019,2350 951,4286 170,130 345,270 526,420 0,2375 -555,3919 -761,5913l119 64c0,2918 679,8567 -355,11490l997 0c1768,2594 1361,7887 785,12875 1386,2578 1735,5965 -591,6791 0,549 -52,1041 -151,1496 1446,589 2684,4048 4135,4580l0 3678c-1339,1474 -1682,3198 -2784,4196 154,135 312,237 471,294l0 1780 -1671 890c-769,1093 -647,1305 -1029,1519l0 1433c1361,500 2506,3488 2506,5517 -340,468 -652,968 -937,1491 221,1579 295,3135 295,5173 -1631,579 -39,311 -1671,891l0 4188c139,501 175,208 1478,208 0,2399 -355,3696 -1478,5203l0 193 -172 32c-250,320 -534,653 -857,1008 0,3154 -273,1819 -836,3678l1672 0c1037,1521 452,1391 1671,1838l0 8275c-2686,3939 2471,8117 3342,11951 -2126,780 -3342,4445 -3342,7355 -1381,506 -587,1311 -2507,1839l0 6435 2507 2758 0 4597c-1429,786 -1319,819 -1671,2758l-1672 920 -835 919 0 2758 835 919 836 920 1671 919c0,1812 478,2100 836,3677 -901,661 -1305,2063 -1671,3678 -1920,528 -1126,1332 -2507,1839l0 3677 1671 919c358,1578 836,1866 836,3678 1469,538 835,5246 835,7355 -1077,1185 -1328,1247 -1671,2758l1671 919c0,3397 864,10378 -835,12871l0 2758c-1456,534 -836,4404 -836,6436 3205,881 6168,8770 2507,10113 0,2431 -951,3803 -2507,5516l0 3677c1632,599 40,321 1671,920 361,1586 1407,4193 2507,4597l0 1838 -1671 919c-1037,1522 -453,1393 -1671,1840l0 5515 1671 0c655,2885 835,4963 835,8275 -1631,598 -39,321 -1671,919l0 10113 -5210 1019 -3 -906c-521,2971 -644,6478 -3073,6223 -790,-2331 -530,-1501 -3742,-1839 -556,-1229 -1651,-1454 -3742,-1839 -687,1520 -1779,646 -2495,2758 -6149,1942 -9191,0 -14969,0 -2119,-1171 -2335,-919 -4990,-919 -694,-1537 -2524,-920 -4989,-920l0 1839 -1247 920 -6238 0c-1607,-1186 -1692,-1462 -3742,-1839 -706,-1561 -5967,-2758 -8732,-2758 -503,1484 -1224,2429 -2495,3677 -3954,0 -6212,-919 -9979,-919 -3095,-1711 -9672,-920 -13721,-920l0 1839c-5722,3163 -21125,0 -28691,0 -729,1612 -5508,2985 -6237,4597l-4989 0c-2302,-1697 -5058,-1938 -6238,-3677 -2091,-386 -3186,-610 -3742,-1839l-3742 0c-677,1498 -4732,2758 -7484,2758 -4475,-2638 -11189,-3668 -14969,-4597l0 1839c-1926,473 -1248,-33 -1248,1839 -4095,0 -5825,-617 -8731,-2759 -4280,0 -2469,-300 -4990,-919l0 1839c-2065,1141 -1888,497 -2495,1839l-11227 0c-5345,-2956 -11013,2719 -16216,3677 -1058,-2339 -6031,-3677 -9979,-3677 -687,-1520 -1779,-646 -2495,-2759l-8732 0 -3742 2759 -6237 0c-1067,-1572 -1112,-1452 -3743,-1839l-1247 -1839 -1247 -919 -3742 0 -1248 919 -1247 919 -1248 1839c-2458,0 -2850,526 -4989,920 -896,-991 -2799,-1436 -4990,-1839 -716,-2113 -1808,-1238 -2495,-2758l-4990 0 -1247 1838c-2139,395 -2531,920 -4989,920 -732,1616 -7119,919 -9980,919 -1608,-1185 -1693,-1461 -3742,-1839l-1247 1839c-4610,0 -14080,951 -17464,-919l-3742 0c-725,-1602 -5975,-920 -8732,-920 -1196,3527 -11900,6787 -13721,2759 -3299,0 -5162,-1046 -7485,-2759l-4990 0c-812,1796 -436,44 -1247,1839 -2152,397 -5690,1548 -6237,2758l-2495 0 -1247 -1838c-2065,-1141 -1889,-498 -2495,-1839l-7484 0 0 1839c-3914,720 -6733,919 -11227,919 -812,-1795 -436,-44 -1247,-1839l-10898 898 -5521 -8738c-405,338 -711,302 -828,-614 -2118,-592 -1364,-397 -1671,-2806 -1117,-417 -1321,-1239 -1672,-2807 1382,-515 587,-1333 2507,-1870 1765,-4611 0,-6893 0,-11226 -1064,-1589 -835,-1752 -835,-3742 -1397,-521 -836,-1893 -836,-3742l1671 0 836 -935 0 -4678c-1077,-1205 -1328,-1269 -1671,-2806 -1419,-529 -2507,-4475 -2507,-6549 1349,-376 2207,-918 3342,-1870 0,-2965 -835,-4659 -835,-7484 -1555,-2322 -836,-7253 -836,-10290l1671 0c2875,-4291 0,-15843 0,-21516 1465,-547 2713,-4130 4178,-4677l0 -3742c-1542,-1727 -1762,-3793 -3342,-4678 -350,-1568 -554,-2389 -1671,-2806l0 -2806c1361,-508 2506,-3550 2506,-5613 -2397,-3355 -3333,-8390 -4178,-11226l1672 0c430,-1444 -30,-935 1671,-935 0,-3072 -560,-4370 -2507,-6549 0,-3208 -273,-1851 -836,-3741l1672 0c1037,-1549 452,-1417 1671,-1871l0 -8420c-2686,-4008 2471,-8259 3342,-12160 -2126,-794 -3342,-4524 -3342,-7485 -1381,-515 -587,-1333 -2507,-1871l0 -6485c-948,-424 -1148,-1212 -1478,-2639 1382,-498 587,-1291 2507,-1811 528,-1335 741,-2469 779,-3515 -704,-477 -692,-818 -972,-2388l-1672 -936 -835 -935 0 -2806 835 -936 836 -935 208 -117c-68,-464 -14,-982 -14,-1925 -1397,-504 -836,-1832 -836,-3623l1671 0 454 -492c-265,-652 -461,-1429 -647,-2263 -1920,-536 -1126,-1355 -2507,-1870l0 -3742 984 -551c-964,-1342 -1626,-4009 -1626,-5575 1349,-365 2207,-889 3342,-1811 0,-2470 -618,-4031 -790,-6160 -82,-232 -159,-510 -239,-870l195 -109 -1 -108c-1555,-2248 -836,-7023 -836,-9963l1671 0c260,-375 472,-809 645,-1290 -159,-1047 -422,-1941 -838,-2563l0 -2806c-1456,-543 -836,-4481 -836,-6548 561,-157 1115,-534 1627,-1053 -305,-2495 -598,-4823 -598,-6573 744,-269 1431,-1295 2120,-2310 -187,-145 -400,-264 -642,-355 0,-2473 -951,-3870 -2507,-5613l0 -3742c1631,-608 40,-326 1671,-935 20,-87 42,-179 66,-272 -289,-1170 -568,-1820 -1543,-2172l0 -2717c815,-295 1553,-1472 2014,-2796 -626,-1053 -294,-996 -1372,-1397l0 -4661c-1110,-2677 -1734,-5566 -2314,-7451l1672 0c429,-1398 -30,-906 1671,-906 0,-731 -34,-1359 -114,-1921l-80 -29 0 -435c-298,-1468 -981,-2512 -2313,-3955 0,-3107 -273,-1793 -836,-3623l1672 0c977,-1413 515,-1380 1477,-1740l0 -537 194 81 0 -7768c-2686,-3882 2471,-7998 3342,-11775 -2126,-769 -3342,-4380 -3342,-7247 -1381,-499 -587,-1291 -2507,-1811l0 -6341 2507 -2717 0 -4529c-1429,-775 -1319,-808 -1671,-2718l-1672 -906 -835 -905 0 -2717 835 -907 836 -905 1671 -906c0,-1785 478,-2069 836,-3623 -901,-651 -1305,-2033 -1671,-3624 -1921,-520 -1126,-1312 -2507,-1811l0 -3623 1671 -906c358,-1554 836,-1838 836,-3623 1469,-531 835,-5169 835,-7246 -1077,-1168 -1328,-1230 -1671,-2718l1671 -906c0,-3347 864,-10224 -835,-12681l0 -2717c-1457,-526 -836,-4339 -836,-6341 3205,-868 6168,-8641 2507,-9964 0,-2395 -951,-3747 -2507,-5434l0 -3624c1631,-589 40,-316 1671,-905 361,-1563 1406,-4132 2507,-4529l0 -1812 -1671 -905c-1037,-1500 -453,-1372 -1671,-1812l0 -5435 1671 0c655,-2841 835,-4889 835,-8152 -1631,-589 -39,-316 -1671,-906l0 -9963 2600 1058c1592,-2782 2412,-6722 6078,-6345 798,2304 535,1484 3779,1818 561,1216 1668,1437 3779,1818 694,-1503 1796,-638 2519,-2727 6208,-1919 9280,0 15114,0 2139,1158 2358,909 5038,909 702,1519 2549,909 5038,909l0 -1818 1260 -909 6298 0c1623,1172 1709,1445 3778,1818 713,1543 6025,2727 8817,2727 508,-1468 1236,-2401 2519,-3636 3993,0 6273,909 10076,909 3126,1691 9767,909 13856,909l0 -1818c5777,-3126 21330,0 28969,0 735,-1593 5561,-2950 6297,-4544l5038 0c2324,1677 5106,1916 6298,3635 2111,381 3217,603 3778,1818l3779 0c684,-1481 4778,-2726 7558,-2726 4517,2607 11296,3626 15114,4544l0 -1818c1944,-467 1259,32 1259,-1818 4136,0 5882,609 8817,2727 4320,0 2492,297 5038,909l0 -1818c2085,-1128 1907,-492 2519,-1818l11336 0c5397,2922 11121,-2688 16374,-3635 1068,2313 6090,3635 10076,3635 694,1503 1796,639 2519,2727l8817 0 3779 -2727 6297 0c1077,1554 1123,1435 3779,1818l1259 1818 1260 909 3778 0 1260 -909 1260 -909 1259 -1818c2483,0 2878,-519 5038,-909 905,980 2827,1420 5038,1818 724,2089 1826,1224 2519,2727l5039 0 1259 -1818c2161,-390 2556,-909 5038,-909 739,-1598 7188,-909 10076,-909 1624,1172 1710,1445 3779,1818l1260 -1818c4654,0 14216,-940 17633,909l3779 0c732,1584 6032,909 8816,909 1208,-3486 12016,-6709 13855,-2727 3330,0 5212,1034 7558,2727l5038 0c819,-1774 440,-43 1259,-1818 2174,-391 5745,-1529 6298,-2726l2519 0 1259 1817c2085,1129 1908,493 2520,1818l7557 0 0 -1818c3951,-712 6798,-908 11336,-908 819,1774 440,43 1259,1817l13855 0 -2895 8947c1995,871 4129,1643 3916,3239 -2118,563 -1364,377 -1671,2670 -1118,397 -1321,1178 -1672,2671 1382,490 587,1269 2507,1780 1765,4388 0,6559 0,10682 -1065,1513 -835,1667 -835,3561 -1397,496 -836,1802 -836,3561l1671 0 836 890 0 4451c-1077,1148 -1328,1208 -1671,2671 -1419,503 -2507,4258 -2507,6231 1349,359 2207,874 3342,1781 0,2821 -835,4433 -835,7121 -1555,2209 -836,6902 -836,9792l1671 0c2875,4084 0,15076 0,20475 1465,520 2713,3931 4178,4451l0 3561c-1542,1642 -1762,3609 -3342,4451 -351,1492 -554,2274 -1671,2670l0 2671c1361,483 2506,3377 2506,5341 -2397,3193 -3334,7984 -4178,10682l1672 0c429,1374 -30,891 1671,891 0,2923 -560,4157 -2507,6231 0,3053 -273,1761 -836,3561l1672 0c1037,1473 452,1347 1671,1780l0 8012c-2686,3815 2471,7860 3342,11572 -2126,755 -3342,4304 -3342,7122 -1189,422 -767,1057 -1851,1551z"/>
   <path id="Fadenkreuz" class="fil1" d="M192480 150130c67485,-8129 129565,37045 140671,102179l42193 -5783 482 3325 -42156 5777c9491,66642 -37694,128282 -105794,138753l3807 26272 -3419 468 -3805 -26260c-68762,8746 -132117,-37923 -141973,-104804l-29863 4093 -481 -3325 29899 -4098c-7868,-65864 39390,-126200 107018,-136141l-4962 -34245 3419 -468 4964 34257zm-99884 135150l35206 -4826c-4330,-41296 25326,-78916 67704,-85385l-4959 -34218c-61802,9142 -105000,64231 -97951,124429zm45769 -6273l35250 -4832c-854,-16714 11214,-31641 28338,-34616l-4960 -34226c-36550,5666 -62147,38050 -58628,73674zm103212 -14146l35252 -4833c-6687,-34906 -40016,-59043 -76414,-55148l4962 34251c16959,-1289 32340,9713 36200,25730zm45812 -6280l35204 -4825c-10282,-59469 -66966,-100699 -128625,-93363l4959 34219c42228,-4688 80941,23397 88462,63969zm35728 -1506l-35182 4822c5932,42081 -23660,80999 -66506,87998l4959 34221c62276,-9670 105397,-66064 96729,-127041zm-45736 6269l-35183 4822c2379,17514 -9629,33706 -27220,37210l4962 34248c37016,-6196 62555,-39868 57441,-76280zm-103426 14176l-35182 4821c5477,36650 40075,62263 77751,57772l-4959 -34226c-18248,1839 -34874,-10610 -37610,-28367zm-45735 6268l-35184 4822c9035,61214 67001,103935 129935,95986l-4959 -34217c-43507,5288 -83496,-24272 -89792,-66591z"/>
  </g>
 </g>
</svg>
